<svg xmlns="http://www.w3.org/2000/svg" width="375" viewBox="0 0 375 375" height="375" version="1.0"><g><g><g><path d="M 62.4375 -41.3125 L 23.1875 -41.3125 L 23.1875 0 L 10.859375 0 L 10.859375 -93.53125 L 68.796875 -93.53125 L 68.796875 -83.390625 L 23.1875 -83.390625 L 23.1875 -51.390625 L 62.4375 -51.390625 Z M 62.4375 -41.3125" transform="translate(.042 196.924)"/></g></g></g><g><g><g><path d="M 51.90625 -6.875 C 47.28125 -1.4375 40.492188 1.28125 31.546875 1.28125 C 24.128906 1.28125 18.484375 -0.867188 14.609375 -5.171875 C 10.734375 -9.472656 8.773438 -15.84375 8.734375 -24.28125 L 8.734375 -69.5 L 20.625 -69.5 L 20.625 -24.609375 C 20.625 -14.066406 24.90625 -8.796875 33.46875 -8.796875 C 42.550781 -8.796875 48.585938 -12.179688 51.578125 -18.953125 L 51.578125 -69.5 L 63.46875 -69.5 L 63.46875 0 L 52.15625 0 Z M 51.90625 -6.875" transform="translate(72.756 196.924)"/></g></g></g><g><g><g><path d="M 25.125 -86.34375 L 25.125 -69.5 L 38.09375 -69.5 L 38.09375 -60.328125 L 25.125 -60.328125 L 25.125 -17.21875 C 25.125 -14.4375 25.703125 -12.347656 26.859375 -10.953125 C 28.015625 -9.554688 29.984375 -8.859375 32.765625 -8.859375 C 34.128906 -8.859375 36.015625 -9.117188 38.421875 -9.640625 L 38.421875 0 C 35.285156 0.851562 32.242188 1.28125 29.296875 1.28125 C 23.984375 1.28125 19.976562 -0.320312 17.28125 -3.53125 C 14.582031 -6.738281 13.234375 -11.300781 13.234375 -17.21875 L 13.234375 -60.328125 L 0.578125 -60.328125 L 0.578125 -69.5 L 13.234375 -69.5 L 13.234375 -86.34375 Z M 25.125 -86.34375" transform="translate(145.278 196.924)"/></g></g></g><g><g><g><path d="M 51.90625 -6.875 C 47.28125 -1.4375 40.492188 1.28125 31.546875 1.28125 C 24.128906 1.28125 18.484375 -0.867188 14.609375 -5.171875 C 10.734375 -9.472656 8.773438 -15.84375 8.734375 -24.28125 L 8.734375 -69.5 L 20.625 -69.5 L 20.625 -24.609375 C 20.625 -14.066406 24.90625 -8.796875 33.46875 -8.796875 C 42.550781 -8.796875 48.585938 -12.179688 51.578125 -18.953125 L 51.578125 -69.5 L 63.46875 -69.5 L 63.46875 0 L 52.15625 0 Z M 51.90625 -6.875" transform="translate(188.251 196.924)"/></g></g></g><g><g><g><path d="M 42.59375 -58.84375 C 40.789062 -59.144531 38.84375 -59.296875 36.75 -59.296875 C 28.945312 -59.296875 23.65625 -55.976562 20.875 -49.34375 L 20.875 0 L 9 0 L 9 -69.5 L 20.5625 -69.5 L 20.75 -61.484375 C 24.644531 -67.691406 30.171875 -70.796875 37.328125 -70.796875 C 39.640625 -70.796875 41.394531 -70.492188 42.59375 -69.890625 Z M 42.59375 -58.84375" transform="translate(260.773 196.924)"/></g></g></g><g><g><g><path d="M 37.84375 1.28125 C 28.414062 1.28125 20.742188 -1.8125 14.828125 -8 C 8.921875 -14.1875 5.96875 -22.460938 5.96875 -32.828125 L 5.96875 -35.015625 C 5.96875 -41.910156 7.285156 -48.066406 9.921875 -53.484375 C 12.554688 -58.898438 16.238281 -63.140625 20.96875 -66.203125 C 25.707031 -69.265625 30.835938 -70.796875 36.359375 -70.796875 C 45.398438 -70.796875 52.425781 -67.816406 57.4375 -61.859375 C 62.445312 -55.910156 64.953125 -47.390625 64.953125 -36.296875 L 64.953125 -31.34375 L 17.859375 -31.34375 C 18.023438 -24.5 20.023438 -18.96875 23.859375 -14.75 C 27.691406 -10.53125 32.566406 -8.421875 38.484375 -8.421875 C 42.679688 -8.421875 46.234375 -9.273438 49.140625 -10.984375 C 52.054688 -12.691406 54.601562 -14.960938 56.78125 -17.796875 L 64.046875 -12.140625 C 58.222656 -3.191406 49.488281 1.28125 37.84375 1.28125 Z M 36.359375 -61.03125 C 31.566406 -61.03125 27.539062 -59.285156 24.28125 -55.796875 C 21.03125 -52.304688 19.019531 -47.410156 18.25 -41.109375 L 53.0625 -41.109375 L 53.0625 -42.015625 C 52.71875 -48.054688 51.085938 -52.734375 48.171875 -56.046875 C 45.265625 -59.367188 41.328125 -61.03125 36.359375 -61.03125 Z M 36.359375 -61.03125" transform="translate(305.288 196.924)"/></g></g></g><g fill="#5CB646"><g><g><path d="M 44.0625 -27.640625 L 18.828125 -27.640625 L 18.828125 -10.546875 L 48.4375 -10.546875 L 48.4375 0 L 5.6875 0 L 5.6875 -63.765625 L 48.34375 -63.765625 L 48.34375 -53.125 L 18.828125 -53.125 L 18.828125 -37.921875 L 44.0625 -37.921875 Z M 44.0625 -27.640625" transform="translate(5.072 271.873)"/></g></g></g><g fill="#5CB646"><g><g><path d="M 32.3125 0 C 31.726562 -1.132812 31.304688 -2.550781 31.046875 -4.25 C 27.984375 -0.832031 24 0.875 19.09375 0.875 C 14.445312 0.875 10.597656 -0.46875 7.546875 -3.15625 C 4.503906 -5.84375 2.984375 -9.226562 2.984375 -13.3125 C 2.984375 -18.332031 4.84375 -22.1875 8.5625 -24.875 C 12.28125 -27.5625 17.660156 -28.921875 24.703125 -28.953125 L 30.53125 -28.953125 L 30.53125 -31.65625 C 30.53125 -33.851562 29.96875 -35.609375 28.84375 -36.921875 C 27.71875 -38.234375 25.941406 -38.890625 23.515625 -38.890625 C 21.378906 -38.890625 19.707031 -38.378906 18.5 -37.359375 C 17.289062 -36.335938 16.6875 -34.9375 16.6875 -33.15625 L 4.03125 -33.15625 C 4.03125 -35.894531 4.875 -38.429688 6.5625 -40.765625 C 8.257812 -43.109375 10.65625 -44.941406 13.75 -46.265625 C 16.84375 -47.597656 20.316406 -48.265625 24.171875 -48.265625 C 30.015625 -48.265625 34.648438 -46.796875 38.078125 -43.859375 C 41.503906 -40.921875 43.21875 -36.796875 43.21875 -31.484375 L 43.21875 -10.953125 C 43.25 -6.453125 43.878906 -3.050781 45.109375 -0.75 L 45.109375 0 Z M 21.859375 -8.796875 C 23.722656 -8.796875 25.441406 -9.210938 27.015625 -10.046875 C 28.597656 -10.878906 29.769531 -12 30.53125 -13.40625 L 30.53125 -21.546875 L 25.796875 -21.546875 C 19.460938 -21.546875 16.085938 -19.359375 15.671875 -14.984375 L 15.640625 -14.234375 C 15.640625 -12.660156 16.191406 -11.359375 17.296875 -10.328125 C 18.410156 -9.304688 19.929688 -8.796875 21.859375 -8.796875 Z M 21.859375 -8.796875" transform="translate(55.515 271.873)"/></g></g></g><g fill="#5CB646"><g><g><path d="M 20.015625 -59.03125 L 20.015625 -47.390625 L 28.109375 -47.390625 L 28.109375 -38.09375 L 20.015625 -38.09375 L 20.015625 -14.453125 C 20.015625 -12.703125 20.347656 -11.445312 21.015625 -10.6875 C 21.691406 -9.925781 22.976562 -9.546875 24.875 -9.546875 C 26.269531 -9.546875 27.507812 -9.648438 28.59375 -9.859375 L 28.59375 -0.265625 C 26.113281 0.492188 23.5625 0.875 20.9375 0.875 C 12.0625 0.875 7.535156 -3.601562 7.359375 -12.5625 L 7.359375 -38.09375 L 0.4375 -38.09375 L 0.4375 -47.390625 L 7.359375 -47.390625 L 7.359375 -59.03125 Z M 20.015625 -59.03125" transform="translate(103.592 271.873)"/></g></g></g><g fill="#5CB646"><g><g><path d="M 30.53125 -13.09375 C 30.53125 -14.644531 29.757812 -15.863281 28.21875 -16.75 C 26.6875 -17.644531 24.226562 -18.441406 20.84375 -19.140625 C 9.570312 -21.503906 3.9375 -26.289062 3.9375 -33.5 C 3.9375 -37.707031 5.679688 -41.21875 9.171875 -44.03125 C 12.660156 -46.851562 17.222656 -48.265625 22.859375 -48.265625 C 28.867188 -48.265625 33.675781 -46.847656 37.28125 -44.015625 C 40.894531 -41.179688 42.703125 -37.5 42.703125 -32.96875 L 30.046875 -32.96875 C 30.046875 -34.78125 29.457031 -36.273438 28.28125 -37.453125 C 27.113281 -38.640625 25.289062 -39.234375 22.8125 -39.234375 C 20.6875 -39.234375 19.035156 -38.75 17.859375 -37.78125 C 16.691406 -36.820312 16.109375 -35.597656 16.109375 -34.109375 C 16.109375 -32.710938 16.769531 -31.582031 18.09375 -30.71875 C 19.425781 -29.851562 21.671875 -29.109375 24.828125 -28.484375 C 27.984375 -27.859375 30.640625 -27.148438 32.796875 -26.359375 C 39.484375 -23.910156 42.828125 -19.664062 42.828125 -13.625 C 42.828125 -9.300781 40.972656 -5.800781 37.265625 -3.125 C 33.554688 -0.457031 28.769531 0.875 22.90625 0.875 C 18.9375 0.875 15.410156 0.164062 12.328125 -1.25 C 9.242188 -2.664062 6.828125 -4.601562 5.078125 -7.0625 C 3.328125 -9.53125 2.453125 -12.195312 2.453125 -15.0625 L 14.453125 -15.0625 C 14.566406 -12.8125 15.394531 -11.085938 16.9375 -9.890625 C 18.488281 -8.703125 20.566406 -8.109375 23.171875 -8.109375 C 25.585938 -8.109375 27.414062 -8.566406 28.65625 -9.484375 C 29.90625 -10.398438 30.53125 -11.601562 30.53125 -13.09375 Z M 30.53125 -13.09375" transform="translate(133.893 271.873)"/></g></g></g></svg>